<?xml version="1.0" encoding="UTF-8"?>
<svg width="100" height="100" viewBox="0 0 100 100" xmlns="http://www.w3.org/2000/svg">
  <!-- Wizard Hat with Head Student Crown -->
  <path d="M30 40 L50 10 L70 40" fill="#1F2937"/>
  <path d="M35 25 L45 15 L50 25 L55 15 L65 25" fill="none" stroke="#FCD34D" stroke-width="3"/>
  <!-- Face -->
  <circle cx="50" cy="45" r="20" fill="#FFB6A3"/>
  <!-- Eyes with Round Glasses -->
  <circle cx="40" cy="40" r="5" fill="none" stroke="#1F2937" stroke-width="2"/>
  <circle cx="60" cy="40" r="5" fill="none" stroke="#1F2937" stroke-width="2"/>
  <path d="M45 40 L55 40" stroke="#1F2937" stroke-width="2"/>
  <!-- Confident Expression -->
  <path d="M45 50 Q50 55 55 50" fill="none" stroke="#1F2937" stroke-width="2"/>
  <!-- Head Student Robes -->
  <path d="M30 65 L70 65 L65 100 L35 100 Z" fill="#1F2937"/>
  <!-- Head Student Badge -->
  <path d="M35 65 L65 65" stroke="#FCD34D" stroke-width="6"/>
  <circle cx="50" cy="75" r="5" fill="#FCD34D"/>
  <path d="M45 75 L55 75" stroke="#1F2937" stroke-width="2"/>
  <!-- Wand with Spell Effect -->
  <path d="M70 60 L80 50" stroke="#92400E" stroke-width="2"/>
  <circle cx="85" cy="45" r="5" fill="#FCD34D" opacity="0.5"/>
  <circle cx="85" cy="45" r="3" fill="#FCD34D"/>
</svg> 