<?xml version="1.0" encoding="UTF-8"?>
<svg width="100" height="100" viewBox="0 0 100 100" xmlns="http://www.w3.org/2000/svg">
  <!-- Spiky Hair -->
  <path d="M30 35 L35 25 L40 35 L45 20 L50 35 L55 20 L60 35 L65 25 L70 35" fill="#191919"/>
  <!-- Face -->
  <circle cx="50" cy="45" r="20" fill="#FFB6A3"/>
  <!-- Headband -->
  <path d="M25 35 L75 35" stroke="#E5E7EB" stroke-width="6"/>
  <circle cx="50" cy="35" r="5" fill="#2563EB"/>
  <!-- Eyes -->
  <path d="M40 40 L45 40" stroke="black" stroke-width="2"/>
  <path d="M55 40 L60 40" stroke="black" stroke-width="2"/>
  <!-- Serious Expression -->
  <path d="M45 50 L55 50" stroke="black" stroke-width="2"/>
  <!-- Chunin Vest -->
  <path d="M35 65 L65 65 L60 90 L40 90 Z" fill="#059669"/>
  <!-- Ninja Outfit -->
  <path d="M30 65 L70 65 L65 100 L35 100 Z" fill="#2563EB"/>
  <!-- Ninja Tools -->
  <path d="M70 80 L80 70" stroke="#4B5563" stroke-width="2"/>
  <circle cx="75" cy="75" r="2" fill="#4B5563"/>
</svg> 