<?xml version="1.0" encoding="UTF-8"?>
<svg width="100" height="100" viewBox="0 0 100 100" xmlns="http://www.w3.org/2000/svg">
  <!-- Ultra Instinct Aura -->
  <circle cx="50" cy="50" r="45" fill="#C8B6E2" opacity="0.3"/>
  <circle cx="50" cy="50" r="40" fill="#9775D9" opacity="0.3"/>
  <!-- Silver Hair -->
  <path d="M30 35 L35 15 L40 35 L45 10 L50 35 L55 10 L60 35 L65 15 L70 35" fill="#E5E7EB"/>
  <!-- Face -->
  <circle cx="50" cy="45" r="20" fill="#FFB6A3"/>
  <!-- Eyes -->
  <path d="M40 40 L45 40" stroke="#C8B6E2" stroke-width="2"/>
  <path d="M55 40 L60 40" stroke="#C8B6E2" stroke-width="2"/>
  <!-- Calm Expression -->
  <path d="M45 50 Q50 52 55 50" stroke="black" stroke-width="2" fill="none"/>
  <!-- Gi -->
  <path d="M30 65 L70 65 L65 100 L35 100 Z" fill="#FF6B6B"/>
  <!-- Belt -->
  <path d="M30 65 L70 65" stroke="#191919" stroke-width="4"/>
  <!-- Power Effects -->
  <circle cx="50" cy="50" r="35" stroke="#C8B6E2" stroke-width="2" fill="none"/>
  <circle cx="50" cy="50" r="42" stroke="#E5E7EB" stroke-width="1" fill="none"/>
</svg> 