<?xml version="1.0" encoding="UTF-8"?>
<svg width="100" height="100" viewBox="0 0 100 100" xmlns="http://www.w3.org/2000/svg">
  <!-- Blue Aura -->
  <path d="M20 40 L25 15 L30 35 L35 10 L40 30 L45 5 L50 30 L55 5 L60 30 L65 10 L70 35 L75 15 L80 40" fill="#4D96FF"/>
  <!-- Hair -->
  <path d="M30 35 L35 15 L40 35 L45 10 L50 35 L55 10 L60 35 L65 15 L70 35" fill="#4D96FF"/>
  <!-- Face -->
  <circle cx="50" cy="45" r="20" fill="#FFB6A3"/>
  <!-- Eyes -->
  <path d="M40 40 L45 40" stroke="#006FFF" stroke-width="2"/>
  <path d="M55 40 L60 40" stroke="#006FFF" stroke-width="2"/>
  <!-- Serious Expression -->
  <path d="M45 50 L55 50" stroke="black" stroke-width="2"/>
  <!-- Gi -->
  <path d="M30 65 L70 65 L65 100 L35 100 Z" fill="#FF6B6B"/>
  <!-- Belt -->
  <path d="M30 65 L70 65" stroke="#191919" stroke-width="4"/>
  <!-- Power Effect -->
  <circle cx="50" cy="50" r="40" stroke="#4D96FF" stroke-width="2" fill="none"/>
</svg> 